<svg width="16" height="17" viewBox="0 0 16 17" fill="none" xmlns="http://www.w3.org/2000/svg">
<path d="M8.24487 1.93331L14.2449 4.33329C14.4782 4.42663 14.6649 4.70662 14.6649 4.95329V7.16663C14.6649 7.5333 14.3649 7.8333 13.9982 7.8333H1.99821C1.63154 7.8333 1.33154 7.5333 1.33154 7.16663V4.95329C1.33154 4.70662 1.51821 4.42663 1.75155 4.33329L7.75155 1.93331C7.88488 1.87998 8.11154 1.87998 8.24487 1.93331Z" stroke="white" stroke-miterlimit="10" stroke-linecap="round" stroke-linejoin="round"/>
<path d="M14.6649 15.1669H1.33154V13.1669C1.33154 12.8002 1.63154 12.5002 1.99821 12.5002H13.9982C14.3649 12.5002 14.6649 12.8002 14.6649 13.1669V15.1669Z" stroke="white" stroke-miterlimit="10" stroke-linecap="round" stroke-linejoin="round"/>
<path d="M2.66528 12.4999V7.83325" stroke="white" stroke-miterlimit="10" stroke-linecap="round" stroke-linejoin="round"/>
<path d="M5.33081 12.4999V7.83325" stroke="white" stroke-miterlimit="10" stroke-linecap="round" stroke-linejoin="round"/>
<path d="M7.99622 12.4999V7.83325" stroke="white" stroke-miterlimit="10" stroke-linecap="round" stroke-linejoin="round"/>
<path d="M10.6654 12.4999V7.83325" stroke="white" stroke-miterlimit="10" stroke-linecap="round" stroke-linejoin="round"/>
<path d="M13.3315 12.4999V7.83325" stroke="white" stroke-miterlimit="10" stroke-linecap="round" stroke-linejoin="round"/>
<path d="M0.663818 15.1667H15.3305" stroke="white" stroke-miterlimit="10" stroke-linecap="round" stroke-linejoin="round"/>
<path d="M7.99841 6.16699C8.5507 6.16699 8.99841 5.71928 8.99841 5.16699C8.99841 4.61471 8.5507 4.16699 7.99841 4.16699C7.44613 4.16699 6.99841 4.61471 6.99841 5.16699C6.99841 5.71928 7.44613 6.16699 7.99841 6.16699Z" stroke="white" stroke-miterlimit="10" stroke-linecap="round" stroke-linejoin="round"/>
</svg>
