<svg width="16" height="16" viewBox="0 0 16 16" fill="none" xmlns="http://www.w3.org/2000/svg">
<path d="M5.04109 5.6299H3.26331C2.61146 5.6299 2.07812 5.09656 2.07812 4.44471V3.25953C2.07812 2.60767 2.61146 2.07434 3.26331 2.07434H5.04109C5.69294 2.07434 6.22627 2.60767 6.22627 3.25953V4.44471C6.22627 5.09656 5.69294 5.6299 5.04109 5.6299Z" stroke="#16A34A" stroke-width="0.888889" stroke-linecap="round" stroke-linejoin="round"/>
<path d="M13.2187 5.03724H11.0854C10.6943 5.03724 10.3743 4.71723 10.3743 4.32612V3.37799C10.3743 2.98688 10.6943 2.66687 11.0854 2.66687H13.2187C13.6098 2.66687 13.9298 2.98688 13.9298 3.37799V4.32612C13.9298 4.71723 13.6098 5.03724 13.2187 5.03724Z" stroke="#16A34A" stroke-width="0.888889" stroke-linecap="round" stroke-linejoin="round"/>
<path d="M13.2187 9.4817H11.0854C10.6943 9.4817 10.3743 9.16169 10.3743 8.77058V7.82245C10.3743 7.43134 10.6943 7.11133 11.0854 7.11133H13.2187C13.6098 7.11133 13.9298 7.43134 13.9298 7.82245V8.77058C13.9298 9.16169 13.6098 9.4817 13.2187 9.4817Z" stroke="#16A34A" stroke-width="0.888889" stroke-linecap="round" stroke-linejoin="round"/>
<path d="M6.22632 3.85229H10.3745" stroke="#16A34A" stroke-width="0.888889" stroke-miterlimit="10" stroke-linecap="round" stroke-linejoin="round"/>
<path d="M8.29956 3.85229V11.556C8.29956 12.2079 8.83289 12.7412 9.48475 12.7412H10.3736" fill="white"/>
<path d="M8.29956 3.85229V11.556C8.29956 12.2079 8.83289 12.7412 9.48475 12.7412H10.3736" stroke="#16A34A" stroke-width="0.888889" stroke-miterlimit="10" stroke-linecap="round" stroke-linejoin="round"/>
<path d="M8.29956 8.29663H10.3736" stroke="#16A34A" stroke-width="0.888889" stroke-miterlimit="10" stroke-linecap="round" stroke-linejoin="round"/>
<path d="M13.2187 13.9262H11.0854C10.6943 13.9262 10.3743 13.6061 10.3743 13.215V12.2669C10.3743 11.8758 10.6943 11.5558 11.0854 11.5558H13.2187C13.6098 11.5558 13.9298 11.8758 13.9298 12.2669V13.215C13.9298 13.6061 13.6098 13.9262 13.2187 13.9262Z" stroke="#16A34A" stroke-width="0.888889" stroke-linecap="round" stroke-linejoin="round"/>
</svg>
