<svg width="16" height="16" viewBox="0 0 16 16" fill="none" xmlns="http://www.w3.org/2000/svg">
<path d="M8.00016 8.93325L9.9335 10.8666C10.0557 10.9888 10.2113 11.0499 10.4002 11.0499C10.5891 11.0499 10.7446 10.9888 10.8668 10.8666C10.9891 10.7444 11.0502 10.5888 11.0502 10.3999C11.0502 10.211 10.9891 10.0555 10.8668 9.93325L8.9335 7.99992L10.8668 6.06659C10.9891 5.94436 11.0502 5.78881 11.0502 5.59992C11.0502 5.41103 10.9891 5.25547 10.8668 5.13325C10.7446 5.01103 10.5891 4.94992 10.4002 4.94992C10.2113 4.94992 10.0557 5.01103 9.9335 5.13325L8.00016 7.06659L6.06683 5.13325C5.94461 5.01103 5.78905 4.94992 5.60016 4.94992C5.41127 4.94992 5.25572 5.01103 5.1335 5.13325C5.01127 5.25547 4.95016 5.41103 4.95016 5.59992C4.95016 5.78881 5.01127 5.94436 5.1335 6.06659L7.06683 7.99992L5.1335 9.93325C5.01127 10.0555 4.95016 10.211 4.95016 10.3999C4.95016 10.5888 5.01127 10.7444 5.1335 10.8666C5.25572 10.9888 5.41127 11.0499 5.60016 11.0499C5.78905 11.0499 5.94461 10.9888 6.06683 10.8666L8.00016 8.93325ZM8.00016 14.6666C7.07794 14.6666 6.21127 14.4915 5.40016 14.1413C4.58905 13.791 3.8835 13.3161 3.2835 12.7166C2.6835 12.117 2.20861 11.4115 1.85883 10.5999C1.50905 9.78836 1.33394 8.9217 1.3335 7.99992C1.33305 7.07814 1.50816 6.21147 1.85883 5.39992C2.2095 4.58836 2.68439 3.88281 3.2835 3.28325C3.88261 2.6837 4.58816 2.20881 5.40016 1.85859C6.21216 1.50836 7.07883 1.33325 8.00016 1.33325C8.9215 1.33325 9.78816 1.50836 10.6002 1.85859C11.4122 2.20881 12.1177 2.6837 12.7168 3.28325C13.3159 3.88281 13.7911 4.58836 14.1422 5.39992C14.4933 6.21147 14.6682 7.07814 14.6668 7.99992C14.6655 8.9217 14.4904 9.78836 14.1415 10.5999C13.7926 11.4115 13.3177 12.117 12.7168 12.7166C12.1159 13.3161 11.4104 13.7913 10.6002 14.1419C9.78994 14.4926 8.92327 14.6675 8.00016 14.6666Z" fill="#40444C"/>
</svg>
