<svg width="20" height="20" viewBox="0 0 20 20" fill="none" xmlns="http://www.w3.org/2000/svg">
<path d="M10.0003 11.1667L12.417 13.5834C12.5698 13.7362 12.7642 13.8126 13.0003 13.8126C13.2364 13.8126 13.4309 13.7362 13.5837 13.5834C13.7364 13.4306 13.8128 13.2362 13.8128 13.0001C13.8128 12.764 13.7364 12.5695 13.5837 12.4167L11.167 10.0001L13.5837 7.58342C13.7364 7.43064 13.8128 7.23619 13.8128 7.00008C13.8128 6.76397 13.7364 6.56953 13.5837 6.41675C13.4309 6.26397 13.2364 6.18758 13.0003 6.18758C12.7642 6.18758 12.5698 6.26397 12.417 6.41675L10.0003 8.83342L7.58366 6.41675C7.43088 6.26397 7.23644 6.18758 7.00033 6.18758C6.76421 6.18758 6.56977 6.26397 6.41699 6.41675C6.26422 6.56953 6.18783 6.76397 6.18783 7.00008C6.18783 7.23619 6.26422 7.43064 6.41699 7.58342L8.83366 10.0001L6.41699 12.4167C6.26422 12.5695 6.18783 12.764 6.18783 13.0001C6.18783 13.2362 6.26422 13.4306 6.41699 13.5834C6.56977 13.7362 6.76421 13.8126 7.00033 13.8126C7.23644 13.8126 7.43088 13.7362 7.58366 13.5834L10.0003 11.1667ZM10.0003 18.3334C8.84755 18.3334 7.76422 18.1145 6.75033 17.6767C5.73644 17.239 4.85449 16.6454 4.10449 15.8959C3.35449 15.1465 2.76088 14.2645 2.32366 13.2501C1.88644 12.2356 1.66755 11.1523 1.66699 10.0001C1.66644 8.84786 1.88533 7.76453 2.32366 6.75008C2.76199 5.73564 3.3556 4.85369 4.10449 4.10425C4.85338 3.3548 5.73533 2.76119 6.75033 2.32341C7.76533 1.88564 8.84866 1.66675 10.0003 1.66675C11.152 1.66675 12.2353 1.88564 13.2503 2.32341C14.2653 2.76119 15.1473 3.3548 15.8962 4.10425C16.6451 4.85369 17.2389 5.73564 17.6778 6.75008C18.1167 7.76453 18.3353 8.84786 18.3337 10.0001C18.332 11.1523 18.1131 12.2356 17.677 13.2501C17.2409 14.2645 16.6473 15.1465 15.8962 15.8959C15.1451 16.6454 14.2631 17.2392 13.2503 17.6776C12.2375 18.1159 11.1542 18.3345 10.0003 18.3334Z" fill="white"/>
</svg>
