<svg width="17" height="14" viewBox="0 0 17 14" fill="none" xmlns="http://www.w3.org/2000/svg">
<path d="M0.846191 1.61538C0.846191 0.723233 1.56942 0 2.46158 0H15.3847C16.2768 0 17 0.723233 17 1.61538C17 2.50754 16.2768 3.23077 15.3847 3.23077H2.46158C1.56942 3.23077 0.846191 2.50754 0.846191 1.61538Z" fill="white"/>
<path d="M0.846191 7.00003C0.846191 6.10788 1.56942 5.38464 2.46158 5.38464H15.3847C16.2768 5.38464 17 6.10788 17 7.00003C17 7.89218 16.2768 8.61541 15.3847 8.61541H2.46158C1.56942 8.61541 0.846191 7.89218 0.846191 7.00003Z" fill="white"/>
<path d="M0.846191 12.3847C0.846191 11.4925 1.56942 10.7693 2.46158 10.7693H15.3847C16.2768 10.7693 17 11.4925 17 12.3847C17 13.2768 16.2768 14.0001 15.3847 14.0001H2.46158C1.56942 14.0001 0.846191 13.2768 0.846191 12.3847Z" fill="white"/>
</svg>
