<svg width="18" height="18" viewBox="0 0 18 18" fill="none" xmlns="http://www.w3.org/2000/svg">
<path d="M9.00037 4.83057V7.32807" stroke="white" stroke-width="1.125" stroke-miterlimit="10" stroke-linecap="round"/>
<path d="M9.01261 1.50012C6.2526 1.50012 4.0176 3.73512 4.0176 6.49512V8.07012C4.0176 8.58012 3.8076 9.34512 3.5451 9.78012L2.5926 11.3701C2.0076 12.3526 2.4126 13.4476 3.4926 13.8076C7.0776 15.0001 10.9551 15.0001 14.5401 13.8076C15.5526 13.4701 15.9876 12.2851 15.4401 11.3701L14.4876 9.78012C14.2251 9.34512 14.0151 8.57262 14.0151 8.07012V6.49512C14.0076 3.75012 11.7576 1.50012 9.01261 1.50012Z" stroke="white" stroke-width="1.125" stroke-miterlimit="10" stroke-linecap="round"/>
<path d="M11.4999 14.1151C11.4999 15.4876 10.3749 16.6126 9.00238 16.6126C8.31988 16.6126 7.68988 16.3276 7.23988 15.8776C6.78988 15.4276 6.50488 14.7976 6.50488 14.1151" stroke="white" stroke-width="1.125" stroke-miterlimit="10"/>
<circle cx="14" cy="4" r="3.33333" fill="#EF4444" stroke="#172754" stroke-width="1.33333"/>
</svg>
