<svg width="18" height="18" viewBox="0 0 18 18" fill="none" xmlns="http://www.w3.org/2000/svg">
<path d="M9.00122 4.83044V7.32795" stroke="#40444C" stroke-width="1.125" stroke-miterlimit="10" stroke-linecap="round"/>
<path d="M9.01248 1.5C6.25248 1.5 4.01748 3.735 4.01748 6.495V8.07C4.01748 8.58 3.80748 9.345 3.54498 9.78L2.59248 11.37C2.00748 12.3525 2.41248 13.4475 3.49248 13.8075C7.07748 15 10.955 15 14.54 13.8075C15.5525 13.47 15.9875 12.285 15.44 11.37L14.4875 9.78C14.225 9.345 14.015 8.5725 14.015 8.07V6.495C14.0075 3.75 11.7575 1.5 9.01248 1.5Z" stroke="#40444C" stroke-width="1.125" stroke-miterlimit="10" stroke-linecap="round"/>
<path d="M11.5 14.115C11.5 15.4875 10.375 16.6125 9.00251 16.6125C8.32 16.6125 7.69 16.3275 7.24 15.8775C6.79 15.4275 6.505 14.7975 6.505 14.115" stroke="#40444C" stroke-width="1.125" stroke-miterlimit="10"/>
<circle cx="14" cy="4" r="3.33333" fill="#DC2626" stroke="#EFF3FF" stroke-width="1.33333"/>
</svg>
