<svg width="11" height="12" viewBox="0 0 11 12" fill="none" xmlns="http://www.w3.org/2000/svg">
<path d="M10.0777 5.49604V2.37937C10.0777 1.69187 9.78439 1.41687 9.05564 1.41687H7.20397C6.47522 1.41687 6.18188 1.69187 6.18188 2.37937V5.49604C6.18188 6.18354 6.47522 6.45854 7.20397 6.45854H9.05564C9.78439 6.45854 10.0777 6.18354 10.0777 5.49604Z" stroke="#1E44AF" stroke-width="0.6875" stroke-linecap="round" stroke-linejoin="round"/>
<path d="M10.0777 9.62124V8.79624C10.0777 8.10874 9.78439 7.83374 9.05564 7.83374H7.20397C6.47522 7.83374 6.18188 8.10874 6.18188 8.79624V9.62124C6.18188 10.3087 6.47522 10.5837 7.20397 10.5837H9.05564C9.78439 10.5837 10.0777 10.3087 10.0777 9.62124Z" stroke="#1E44AF" stroke-width="0.6875" stroke-linecap="round" stroke-linejoin="round"/>
<path d="M4.81087 6.50425V9.62092C4.81087 10.3084 4.51754 10.5834 3.78879 10.5834H1.93712C1.20837 10.5834 0.915039 10.3084 0.915039 9.62092V6.50425C0.915039 5.81675 1.20837 5.54175 1.93712 5.54175H3.78879C4.51754 5.54175 4.81087 5.81675 4.81087 6.50425Z" stroke="#1E44AF" stroke-width="0.6875" stroke-linecap="round" stroke-linejoin="round"/>
<path d="M4.81087 2.37937V3.20437C4.81087 3.89187 4.51754 4.16687 3.78879 4.16687H1.93712C1.20837 4.16687 0.915039 3.89187 0.915039 3.20437V2.37937C0.915039 1.69187 1.20837 1.41687 1.93712 1.41687H3.78879C4.51754 1.41687 4.81087 1.69187 4.81087 2.37937Z" stroke="#1E44AF" stroke-width="0.6875" stroke-linecap="round" stroke-linejoin="round"/>
</svg>
