<svg width="16" height="16" viewBox="0 0 16 16" fill="none" xmlns="http://www.w3.org/2000/svg">
<g clip-path="url(#clip0_350_729)">
<path d="M8.72985 11.5355C8.72985 11.7019 8.68049 11.8646 8.58802 12.003C8.49555 12.1414 8.36412 12.2492 8.21035 12.3129C8.05658 12.3766 7.88737 12.3933 7.72413 12.3608C7.56089 12.3284 7.41094 12.2482 7.29325 12.1305C7.17556 12.0128 7.09541 11.8629 7.06294 11.6996C7.03047 11.5364 7.04713 11.3672 7.11083 11.2134C7.17452 11.0596 7.28238 10.9282 7.42077 10.8357C7.55916 10.7433 7.72187 10.6939 7.88831 10.6939C8.1115 10.6939 8.32554 10.7826 8.48336 10.9404C8.64118 11.0982 8.72985 11.3123 8.72985 11.5355ZM7.88831 3.96161C6.34128 3.96161 5.08318 5.09418 5.08318 6.48623V6.76674C5.08318 6.91553 5.14229 7.05823 5.2475 7.16345C5.35271 7.26866 5.49541 7.32777 5.6442 7.32777C5.793 7.32777 5.9357 7.26866 6.04091 7.16345C6.14612 7.05823 6.20523 6.91553 6.20523 6.76674V6.48623C6.20523 5.71482 6.96051 5.08366 7.88831 5.08366C8.8161 5.08366 9.57138 5.71482 9.57138 6.48623C9.57138 7.25764 8.8161 7.88879 7.88831 7.88879C7.73951 7.88879 7.59681 7.9479 7.4916 8.05311C7.38639 8.15832 7.32728 8.30102 7.32728 8.44982V9.01084C7.32728 9.15964 7.38639 9.30234 7.4916 9.40755C7.59681 9.51276 7.73951 9.57187 7.88831 9.57187C8.0371 9.57187 8.1798 9.51276 8.28501 9.40755C8.39022 9.30234 8.44933 9.15964 8.44933 9.01084V8.96035C9.72847 8.72542 10.6934 7.70506 10.6934 6.48623C10.6934 5.09418 9.43534 3.96161 7.88831 3.96161ZM15.1816 7.88879C15.1816 9.33128 14.7539 10.7414 13.9525 11.9408C13.1511 13.1401 12.012 14.0749 10.6793 14.627C9.34666 15.179 7.88022 15.3234 6.46545 15.042C5.05068 14.7606 3.75113 14.0659 2.73114 13.046C1.71115 12.026 1.01653 10.7264 0.735113 9.31165C0.453698 7.89688 0.598131 6.43044 1.15015 5.09775C1.70216 3.76507 2.63697 2.62601 3.83635 1.82461C5.03573 1.02321 6.44582 0.595459 7.88831 0.595459C9.82199 0.597501 11.6759 1.36656 13.0432 2.73388C14.4105 4.1012 15.1796 5.95511 15.1816 7.88879ZM14.0596 7.88879C14.0596 6.66823 13.6976 5.47507 13.0195 4.46021C12.3414 3.44535 11.3776 2.65436 10.25 2.18727C9.1223 1.72018 7.88146 1.59797 6.68435 1.83609C5.48724 2.07421 4.38762 2.66197 3.52455 3.52504C2.66148 4.38811 2.07372 5.48772 1.8356 6.68483C1.59748 7.88195 1.7197 9.12279 2.18679 10.2504C2.65388 11.3781 3.44486 12.3419 4.45973 13.02C5.47459 13.6981 6.66774 14.0601 7.88831 14.0601C9.52446 14.0582 11.0931 13.4074 12.25 12.2505C13.4069 11.0936 14.0577 9.52495 14.0596 7.88879Z" fill="#D98B06"/>
</g>
<defs>
<clipPath id="clip0_350_729">
<rect width="14.9607" height="14.9607" fill="white" transform="translate(0.407959 0.408569)"/>
</clipPath>
</defs>
</svg>
