<svg width="16" height="16" viewBox="0 0 16 16" fill="none" xmlns="http://www.w3.org/2000/svg">
<path d="M2.66528 6.28743V9.70669C2.66528 10.963 2.66528 10.963 3.85047 11.763L7.10973 13.6474C7.60158 13.9319 8.40158 13.9319 8.88751 13.6474L12.1468 11.763C13.3319 10.963 13.3319 10.963 13.3319 9.71262V6.28743C13.3319 5.03706 13.3319 5.03706 12.1468 4.23706L8.88751 2.35262C8.40158 2.06817 7.60158 2.06817 7.10973 2.35262L3.85047 4.23706C2.66528 5.03706 2.66528 5.03706 2.66528 6.28743Z" stroke="#16A34A" stroke-width="0.888889" stroke-linecap="round" stroke-linejoin="round"/>
<path d="M7.9986 9.77797C8.98044 9.77797 9.77638 8.98203 9.77638 8.00019C9.77638 7.01835 8.98044 6.22241 7.9986 6.22241C7.01676 6.22241 6.22083 7.01835 6.22083 8.00019C6.22083 8.98203 7.01676 9.77797 7.9986 9.77797Z" stroke="#16A34A" stroke-width="0.888889" stroke-linecap="round" stroke-linejoin="round"/>
</svg>
