<svg width="16" height="17" viewBox="0 0 16 17" fill="none" xmlns="http://www.w3.org/2000/svg">
<path d="M7.27002 13.747H11.5834C14.05 13.747 14.6634 13.1336 14.6634 10.667C13.81 10.667 13.1234 9.97363 13.1234 9.12696C13.1234 8.27363 13.81 7.5803 14.6634 7.5803V6.96696C14.6634 4.5003 14.05 3.88696 11.5834 3.88696H7.33002V8.41363" stroke="white" stroke-linecap="round" stroke-linejoin="round"/>
<path d="M7.33458 11.7472V13.7472H5.48791C4.50124 13.7472 3.92124 13.0739 3.28124 11.5272L3.16124 11.2272C3.96791 10.9072 4.36124 9.9739 4.02124 9.16724C3.69458 8.36057 2.76791 7.9739 1.95458 8.30724L1.84124 8.02057C0.881244 5.6739 1.21458 4.8539 3.56124 3.88724L5.32124 3.16724L7.33458 8.04724V9.74724" stroke="white" stroke-linecap="round" stroke-linejoin="round"/>
<path d="M5.445 13.7473H5.33167" stroke="white" stroke-linecap="round" stroke-linejoin="round"/>
</svg>
